<svg width="25" height="24" viewBox="0 0 25 24" fill="none" xmlns="http://www.w3.org/2000/svg">
<path d="M23.7511 10.5194L23.7511 10.5195C23.1413 13.7169 20.3325 16.8457 17.4627 19.2622C16.0554 20.4471 14.6863 21.4175 13.6681 22.0918C13.188 22.4098 12.7876 22.6609 12.5 22.8365C12.2124 22.6609 11.812 22.4098 11.3319 22.0918C10.3137 21.4175 8.94461 20.4471 7.53731 19.2622C4.66746 16.8457 1.85871 13.7169 1.24893 10.5195L1.24892 10.5194C0.618977 7.2174 1.25197 4.84364 2.37884 3.31976C3.50941 1.79087 5.20954 1.01268 6.94443 1.01268H6.97675L7.009 1.0106C7.91842 0.951747 8.82759 1.13876 9.64421 1.55357C10.4609 1.96845 11.1568 2.59689 11.6595 3.3766L12.5 4.68016L13.3405 3.3766C13.8432 2.59689 14.5391 1.96844 15.3558 1.55357C16.1724 1.13876 17.0816 0.951747 17.991 1.0106L18.0233 1.01268H18.0556C19.7905 1.01268 21.4906 1.79087 22.6212 3.31976C23.748 4.84364 24.381 7.2174 23.7511 10.5194Z" stroke="black" stroke-width="2"/>
</svg>
